<svg viewBox="0 0 24 24" fill="none" xmlns="http://www.w3.org/2000/svg">
<path d="M11 11C11 10.4477 11.4477 10 12 10C12.5523 10 13 10.4477 13 11V16.5C13 17.0523 12.5523 17.5 12 17.5C11.4477 17.5 11 17.0523 11 16.5V11Z" fill="currentColor"/>
<path d="M13.25 7.75C13.25 8.44036 12.6904 9 12 9C11.3096 9 10.75 8.44036 10.75 7.75C10.75 7.05964 11.3096 6.5 12 6.5C12.6904 6.5 13.25 7.05964 13.25 7.75Z" fill="currentColor"/>
<path fill-rule="evenodd" clip-rule="evenodd" d="M12 22C6.47715 22 2 17.5228 2 12C2 6.47715 6.47715 2 12 2C17.5228 2 22 6.47715 22 12C22 17.5228 17.5228 22 12 22ZM12 4C16.4183 4 20 7.58172 20 12C20 16.4183 16.4183 20 12 20C7.58172 20 4 16.4183 4 12C4 7.58172 7.58172 4 12 4Z" fill="currentColor"/>
</svg>
